<svg xmlns="http://www.w3.org/2000/svg"
     contentStyleType="text/css" height="631px" preserveAspectRatio="none"
     style="width:1517px;height:631px;background:#FFFFFF;" version="1.1" viewBox="0 0 1517 631"
     width="1517px" zoomAndPan="magnify">
    <defs/>
    <g><!--cluster Roguelike-->
        <g id="cluster_Roguelike">
            <rect fill="none" height="518.95" rx="2.5" ry="2.5"
                  style="stroke:#181818;stroke-width:1;" width="1504" x="7" y="106.99"/>
            <text fill="#000000" font-family="sans-serif" font-size="14" font-weight="bold"
                  lengthAdjust="spacing" textLength="71.4014" x="723.2993" y="122.5252">Roguelike
            </text>
        </g><!--cluster Utils-->
        <g id="cluster_Utils">
            <rect fill="none" height="113.48" rx="2.5" ry="2.5"
                  style="stroke:#181818;stroke-width:1;" width="232" x="39" y="212.48"/>
            <text fill="#000000" font-family="sans-serif" font-size="14" font-weight="bold"
                  lengthAdjust="spacing" textLength="33.0039" x="138.498" y="228.0152">Utils
            </text>
        </g><!--cluster Game Logic-->
        <g id="cluster_Game Logic">
            <rect fill="none" height="381.46" rx="2.5" ry="2.5"
                  style="stroke:#181818;stroke-width:1;" width="608" x="311" y="212.48"/>
            <text fill="#000000" font-family="sans-serif" font-size="14" font-weight="bold"
                  lengthAdjust="spacing" textLength="83.3848" x="573.3076" y="228.0152">Game Logic
            </text>
        </g><!--cluster UI-->
        <g id="cluster_UI">
            <rect fill="none" height="227.98" rx="2.5" ry="2.5"
                  style="stroke:#181818;stroke-width:1;" width="520" x="959" y="365.96"/>
            <text fill="#000000" font-family="sans-serif" font-size="14" font-weight="bold"
                  lengthAdjust="spacing" textLength="14.9502" x="1211.5249" y="381.4952">UI
            </text>
        </g><!--entity KeyboardInputHandler-->
        <g id="elem_KeyboardInputHandler">
            <rect fill="#F1F1F1" height="46.4883" rx="2.5" ry="2.5"
                  style="stroke:#181818;stroke-width:0.5;" width="192.4893" x="915.76" y="141.99"/>
            <rect fill="#F1F1F1" height="10" style="stroke:#181818;stroke-width:0.5;" width="15"
                  x="1088.2493" y="146.99"/>
            <rect fill="#F1F1F1" height="2" style="stroke:#181818;stroke-width:0.5;" width="4"
                  x="1086.2493" y="148.99"/>
            <rect fill="#F1F1F1" height="2" style="stroke:#181818;stroke-width:0.5;" width="4"
                  x="1086.2493" y="152.99"/>
            <text fill="#000000" font-family="sans-serif" font-size="14" lengthAdjust="spacing"
                  textLength="152.4893" x="930.76" y="175.5252">KeyboardInputHandler
            </text>
        </g><!--entity SaveLoadManager-->
        <g id="elem_SaveLoadManager">
            <rect fill="#F1F1F1" height="46.4883" rx="2.5" ry="2.5"
                  style="stroke:#181818;stroke-width:0.5;" width="161.3926" x="63.3" y="255.48"/>
            <rect fill="#F1F1F1" height="10" style="stroke:#181818;stroke-width:0.5;" width="15"
                  x="204.6926" y="260.48"/>
            <rect fill="#F1F1F1" height="2" style="stroke:#181818;stroke-width:0.5;" width="4"
                  x="202.6926" y="262.48"/>
            <rect fill="#F1F1F1" height="2" style="stroke:#181818;stroke-width:0.5;" width="4"
                  x="202.6926" y="266.48"/>
            <text fill="#000000" font-family="sans-serif" font-size="14" lengthAdjust="spacing"
                  textLength="121.3926" x="78.3" y="289.0152">SaveLoadManager
            </text>
        </g><!--entity Game Manager-->
        <g id="elem_Game Manager">
            <rect fill="#F1F1F1" height="46.4883" rx="2.5" ry="2.5"
                  style="stroke:#181818;stroke-width:0.5;" width="141.6162" x="529.19" y="255.48"/>
            <rect fill="#F1F1F1" height="10" style="stroke:#181818;stroke-width:0.5;" width="15"
                  x="650.8062" y="260.48"/>
            <rect fill="#F1F1F1" height="2" style="stroke:#181818;stroke-width:0.5;" width="4"
                  x="648.8062" y="262.48"/>
            <rect fill="#F1F1F1" height="2" style="stroke:#181818;stroke-width:0.5;" width="4"
                  x="648.8062" y="266.48"/>
            <text fill="#000000" font-family="sans-serif" font-size="14" lengthAdjust="spacing"
                  textLength="101.6162" x="544.19" y="289.0152">Game Manager
            </text>
        </g><!--entity Level Manager-->
        <g id="elem_Level Manager">
            <rect fill="#F1F1F1" height="46.4883" rx="2.5" ry="2.5"
                  style="stroke:#181818;stroke-width:0.5;" width="137.2549" x="343.37" y="408.96"/>
            <rect fill="#F1F1F1" height="10" style="stroke:#181818;stroke-width:0.5;" width="15"
                  x="460.6249" y="413.96"/>
            <rect fill="#F1F1F1" height="2" style="stroke:#181818;stroke-width:0.5;" width="4"
                  x="458.6249" y="415.96"/>
            <rect fill="#F1F1F1" height="2" style="stroke:#181818;stroke-width:0.5;" width="4"
                  x="458.6249" y="419.96"/>
            <text fill="#000000" font-family="sans-serif" font-size="14" lengthAdjust="spacing"
                  textLength="97.2549" x="358.37" y="442.4952">Level Manager
            </text>
        </g><!--entity Character Manager-->
        <g id="elem_Character Manager">
            <rect fill="#F1F1F1" height="46.4883" rx="2.5" ry="2.5"
                  style="stroke:#181818;stroke-width:0.5;" width="168.3994" x="515.8" y="408.96"/>
            <rect fill="#F1F1F1" height="10" style="stroke:#181818;stroke-width:0.5;" width="15"
                  x="664.1994" y="413.96"/>
            <rect fill="#F1F1F1" height="2" style="stroke:#181818;stroke-width:0.5;" width="4"
                  x="662.1994" y="415.96"/>
            <rect fill="#F1F1F1" height="2" style="stroke:#181818;stroke-width:0.5;" width="4"
                  x="662.1994" y="419.96"/>
            <text fill="#000000" font-family="sans-serif" font-size="14" lengthAdjust="spacing"
                  textLength="128.3994" x="530.8" y="442.4952">Character Manager
            </text>
        </g><!--entity Experience Manager-->
        <g id="elem_Experience Manager">
            <rect fill="#F1F1F1" height="46.4883" rx="2.5" ry="2.5"
                  style="stroke:#181818;stroke-width:0.5;" width="176.917" x="511.54" y="515.45"/>
            <rect fill="#F1F1F1" height="10" style="stroke:#181818;stroke-width:0.5;" width="15"
                  x="668.457" y="520.45"/>
            <rect fill="#F1F1F1" height="2" style="stroke:#181818;stroke-width:0.5;" width="4"
                  x="666.457" y="522.45"/>
            <rect fill="#F1F1F1" height="2" style="stroke:#181818;stroke-width:0.5;" width="4"
                  x="666.457" y="526.45"/>
            <text fill="#000000" font-family="sans-serif" font-size="14" lengthAdjust="spacing"
                  textLength="136.917" x="526.54" y="548.9852">Experience Manager
            </text>
        </g><!--entity Combat Manager-->
        <g id="elem_Combat Manager">
            <rect fill="#F1F1F1" height="46.4883" rx="2.5" ry="2.5"
                  style="stroke:#181818;stroke-width:0.5;" width="156.0332" x="718.98" y="408.96"/>
            <rect fill="#F1F1F1" height="10" style="stroke:#181818;stroke-width:0.5;" width="15"
                  x="855.0132" y="413.96"/>
            <rect fill="#F1F1F1" height="2" style="stroke:#181818;stroke-width:0.5;" width="4"
                  x="853.0132" y="415.96"/>
            <rect fill="#F1F1F1" height="2" style="stroke:#181818;stroke-width:0.5;" width="4"
                  x="853.0132" y="419.96"/>
            <text fill="#000000" font-family="sans-serif" font-size="14" lengthAdjust="spacing"
                  textLength="116.0332" x="733.98" y="442.4952">Combat Manager
            </text>
        </g><!--entity Main Menu-->
        <g id="elem_Main Menu">
            <rect fill="#F1F1F1" height="46.4883" rx="2.5" ry="2.5"
                  style="stroke:#181818;stroke-width:0.5;" width="114.1904" x="1023.9" y="408.96"/>
            <rect fill="#F1F1F1" height="10" style="stroke:#181818;stroke-width:0.5;" width="15"
                  x="1118.0904" y="413.96"/>
            <rect fill="#F1F1F1" height="2" style="stroke:#181818;stroke-width:0.5;" width="4"
                  x="1116.0904" y="415.96"/>
            <rect fill="#F1F1F1" height="2" style="stroke:#181818;stroke-width:0.5;" width="4"
                  x="1116.0904" y="419.96"/>
            <text fill="#000000" font-family="sans-serif" font-size="14" lengthAdjust="spacing"
                  textLength="74.1904" x="1038.9" y="442.4952">Main Menu
            </text>
        </g><!--entity Inventory Screen-->
        <g id="elem_Inventory Screen">
            <rect fill="#F1F1F1" height="46.4883" rx="2.5" ry="2.5"
                  style="stroke:#181818;stroke-width:0.5;" width="152.4922" x="1243.75" y="408.96"/>
            <rect fill="#F1F1F1" height="10" style="stroke:#181818;stroke-width:0.5;" width="15"
                  x="1376.2422" y="413.96"/>
            <rect fill="#F1F1F1" height="2" style="stroke:#181818;stroke-width:0.5;" width="4"
                  x="1374.2422" y="415.96"/>
            <rect fill="#F1F1F1" height="2" style="stroke:#181818;stroke-width:0.5;" width="4"
                  x="1374.2422" y="419.96"/>
            <text fill="#000000" font-family="sans-serif" font-size="14" lengthAdjust="spacing"
                  textLength="112.4922" x="1258.75" y="442.4952">Inventory Screen
            </text>
        </g><!--entity Game Scene-->
        <g id="elem_Game Scene">
            <rect fill="#F1F1F1" height="46.4883" rx="2.5" ry="2.5"
                  style="stroke:#181818;stroke-width:0.5;" width="122.1475" x="1312.93" y="515.45"/>
            <rect fill="#F1F1F1" height="10" style="stroke:#181818;stroke-width:0.5;" width="15"
                  x="1415.0775" y="520.45"/>
            <rect fill="#F1F1F1" height="2" style="stroke:#181818;stroke-width:0.5;" width="4"
                  x="1413.0775" y="522.45"/>
            <rect fill="#F1F1F1" height="2" style="stroke:#181818;stroke-width:0.5;" width="4"
                  x="1413.0775" y="526.45"/>
            <text fill="#000000" font-family="sans-serif" font-size="14" lengthAdjust="spacing"
                  textLength="82.1475" x="1327.93" y="548.9852">Game Scene
            </text>
        </g><!--entity Status Bar-->
        <g id="elem_Status Bar">
            <rect fill="#F1F1F1" height="46.4883" rx="2.5" ry="2.5"
                  style="stroke:#181818;stroke-width:0.5;" width="107.5117" x="991.24" y="515.45"/>
            <rect fill="#F1F1F1" height="10" style="stroke:#181818;stroke-width:0.5;" width="15"
                  x="1078.7517" y="520.45"/>
            <rect fill="#F1F1F1" height="2" style="stroke:#181818;stroke-width:0.5;" width="4"
                  x="1076.7517" y="522.45"/>
            <rect fill="#F1F1F1" height="2" style="stroke:#181818;stroke-width:0.5;" width="4"
                  x="1076.7517" y="526.45"/>
            <text fill="#000000" font-family="sans-serif" font-size="14" lengthAdjust="spacing"
                  textLength="67.5117" x="1006.24" y="548.9852">Status Bar
            </text>
        </g><!--entity Notification Bar-->
        <g id="elem_Notification Bar">
            <rect fill="#F1F1F1" height="46.4883" rx="2.5" ry="2.5"
                  style="stroke:#181818;stroke-width:0.5;" width="144.8359" x="1133.58" y="515.45"/>
            <rect fill="#F1F1F1" height="10" style="stroke:#181818;stroke-width:0.5;" width="15"
                  x="1258.4159" y="520.45"/>
            <rect fill="#F1F1F1" height="2" style="stroke:#181818;stroke-width:0.5;" width="4"
                  x="1256.4159" y="522.45"/>
            <rect fill="#F1F1F1" height="2" style="stroke:#181818;stroke-width:0.5;" width="4"
                  x="1256.4159" y="526.45"/>
            <text fill="#000000" font-family="sans-serif" font-size="14" lengthAdjust="spacing"
                  textLength="104.8359" x="1148.58" y="548.9852">Notification Bar
            </text>
        </g><!--entity User-->
        <g id="elem_User">
            <ellipse cx="1189.0026" cy="14" fill="#F1F1F1" rx="8" ry="8"
                     style="stroke:#181818;stroke-width:0.5;"/>
            <path
                d="M1189.0026,22 L1189.0026,49 M1176.0026,30 L1202.0026,30 M1189.0026,49 L1176.0026,64 M1189.0026,49 L1202.0026,64 "
                fill="none" style="stroke:#181818;stroke-width:0.5;"/>
            <text fill="#000000" font-family="sans-serif" font-size="14" lengthAdjust="spacing"
                  textLength="30.3652" x="1173.82" y="79.0352">User
            </text>
        </g><!--link User to KeyboardInputHandler-->
        <g id="link_User_KeyboardInputHandler">
            <path d="M1173.6,55.14 C1145.17,74.33 1088.8227,112.3726 1050.4327,138.2926 "
                  fill="none" id="User-to-KeyboardInputHandler"
                  style="stroke:#181818;stroke-width:1;"/>
            <polygon fill="#181818"
                     points="1045.46,141.65,1055.1573,139.929,1049.6039,138.8521,1050.6807,133.2987,1045.46,141.65"
                     style="stroke:#181818;stroke-width:1;"/>
        </g><!--link KeyboardInputHandler to Game Logic-->
        <g id="link_KeyboardInputHandler_Game Logic">
            <path
                d="M991.16,188.79 C977.285,203.805 958.745,223.8725 942.7887,241.145 C934.8106,249.7813 927.4784,257.7188 921.6983,263.9766 C920.9758,264.7588 920.2775,265.5148 919.6052,266.2426 C919.4372,266.4245 923.3418,262.1972 923.177,262.3756 "
                fill="none" id="KeyboardInputHandler-to-Game Logic"
                style="stroke:#181818;stroke-width:1;"/>
            <polygon fill="#181818"
                     points="919.106,266.7831,928.1509,262.8858,922.4985,263.1102,922.2741,257.4578,919.106,266.7831"
                     style="stroke:#181818;stroke-width:1;"/>
        </g><!--link Game Manager to Level Manager-->
        <g id="link_Game Manager_Level Manager">
            <path
                d="M564.58,302.17 C544.5,315.37 519.23,332.79 498,349.96 C475.16,368.43 455.2426,387.3774 438.3726,404.2474 "
                fill="none" id="Game Manager-to-Level Manager"
                style="stroke:#181818;stroke-width:1;"/>
            <polygon fill="#181818"
                     points="434.13,408.49,443.3224,404.9545,437.6655,404.9545,437.6655,399.2976,434.13,408.49"
                     style="stroke:#181818;stroke-width:1;"/>
        </g><!--link Game Manager to Character Manager-->
        <g id="link_Game Manager_Character Manager">
            <path d="M600,302.4 C600,331.12 600,374.31 600,402.87 " fill="none"
                  id="Game Manager-to-Character Manager" style="stroke:#181818;stroke-width:1;"/>
            <polygon fill="#181818" points="600,408.87,604,399.87,600,403.87,596,399.87,600,408.87"
                     style="stroke:#181818;stroke-width:1;"/>
        </g><!--link Character Manager to Experience Manager-->
        <g id="link_Character Manager_Experience Manager">
            <path d="M600,455.88 C600,473.41 600,491.55 600,509.07 " fill="none"
                  id="Character Manager-to-Experience Manager"
                  style="stroke:#181818;stroke-width:1;"/>
            <polygon fill="#181818" points="600,515.07,604,506.07,600,510.07,596,506.07,600,515.07"
                     style="stroke:#181818;stroke-width:1;"/>
        </g><!--link Game Manager to Combat Manager-->
        <g id="link_Game Manager_Combat Manager">
            <path
                d="M622.2,302.28 C636.26,315.47 655.45,331.52 675,341.96 C686.04,347.86 691,343.99 702,349.96 C730.41,365.4 753.705,386.1298 771.745,404.3198 "
                fill="none" id="Game Manager-to-Combat Manager"
                style="stroke:#181818;stroke-width:1;"/>
            <polygon fill="#181818"
                     points="775.97,408.58,772.4726,399.3731,772.4491,405.0299,766.7923,405.0064,775.97,408.58"
                     style="stroke:#181818;stroke-width:1;"/>
        </g><!--link Game Logic to UI-->
        <g id="link_Game Logic_UI">
            <path
                d="M919.012,281.4578 C919.211,281.492 919.4127,281.5266 919.6172,281.5618 C920.4353,281.7023 921.2981,281.8504 922.2046,282.0057 C924.0176,282.3163 926.0054,282.6559 928.1607,283.023 C936.782,284.4913 948.0823,286.3983 961.5866,288.6378 C988.595,293.1169 1024.4188,298.9263 1065.255,305.2175 C1146.9275,317.8 1248.65,332.31 1340,341.96 C1353.18,343.36 1449.37,340.86 1459,349.96 C1462.045,352.8413 1464.5211,356.1373 1466.5189,359.7144 C1467.5179,361.5029 1468.3972,363.3617 1469.1684,365.274 C1469.2166,365.3935 1467.0609,359.9325 1467.1082,360.0525 "
                fill="none" id="Game Logic-to-UI" style="stroke:#181818;stroke-width:1;"/>
            <polygon fill="#181818"
                     points="1469.3117,365.6332,1469.727,355.7931,1467.4755,360.9826,1462.286,358.7311,1469.3117,365.6332"
                     style="stroke:#181818;stroke-width:1;"/>
        </g><!--reverse link Utils to Game Logic-->
        <g id="link_Utils_Game Logic">
            <path
                d="M273.8608,250.7879 C274.3212,249.8931 272.4095,253.6579 272.8991,252.734 C274.8577,249.0384 277.0497,245.1253 279.4688,241.1188 C289.145,225.0925 302.455,207.57 319,196.48 C325.63,192.03 328.57,193.37 336.5,192.48 C366.59,189.08 851.41,189.08 881.5,192.48 C889.43,193.37 893.66,190.55 899,196.48 C901.745,199.525 904.0028,202.9113 905.8479,206.525 C906.7704,208.3319 907.5898,210.1957 908.3153,212.1022 C908.3606,212.2213 908.4056,212.3406 908.4502,212.4601 "
                fill="none" id="Utils-backto-Game Logic" style="stroke:#181818;stroke-width:1;"/>
            <polygon fill="#181818"
                     points="271.1315,256.1312,278.7877,249.9359,273.4059,251.6785,271.6633,246.2967,271.1315,256.1312"
                     style="stroke:#181818;stroke-width:1;"/>
        </g><!--reverse link User to UI-->
        <g id="link_User_UI">
            <path
                d="M1210.6386,46.8933 C1241.1386,50.4933 1303.11,61.74 1344,98.99 C1400.03,150.035 1431.075,228.7225 1448.21,296.705 C1452.4938,313.7006 1455.9081,330.0272 1458.6262,345.0855 C1459.3057,348.8501 1459.9417,352.5354 1460.5368,356.1321 C1460.8344,357.9304 1461.1218,359.7066 1461.3993,361.4595 C1461.5381,362.3359 1461.6744,363.2065 1461.8083,364.0711 C1461.8752,364.5034 1461.9415,364.9343 1462.0072,365.3636 "
                fill="none" id="User-backto-UI" style="stroke:#181818;stroke-width:1;"/>
            <polygon fill="#181818"
                     points="1204.68,46.19,1213.1491,51.2174,1209.6455,46.7761,1214.0868,43.2725,1204.68,46.19"
                     style="stroke:#181818;stroke-width:1;"/>
        </g><!--SRC=[XPB1ReCm44Jl_efLxln23wsg5ZNf8OXJbCF6R8XLs4LcIHjL-VTYIn61WEhZp3nhrsEL1bJW8AfIG-4yMNN2ng1LyP2tv8q98d9P4QosKdPKkIzQmQ-1_km-w78Gz4NAJQVlo4L5Vc-YTyVbwghsnaGkmpEj1OiDCfO12UfrohrXJR2MqjaH7EKH6OvAINeYVvUCwJMTgNgCH-_bXBxVjOVc_TUVXhmZjhHqWTG7r4VpEhzGdeuMsQ1Zs11t0xXB-KpSl_u5Ckk9-Fy5utDabfWcmsMAshNmZDEfFqNTqLaCPO_jsznNOqBxa1JopSdJKj7pya0D1VRPKMr3PjBFKcocgXbjoCzLjtZtfCNxkOTKdawTYeuQdV2_zoPF8UcQNWXFzmS0]-->
    </g>
</svg>
